<?xml version="1.0" encoding="UTF-8" standalone="no"?>
<!-- Created with Inkscape (http://www.inkscape.org/) -->

<svg
   width="66.043747mm"
   height="32.032139mm"
   viewBox="0 0 66.043747 32.032139"
   version="1.1"
   id="svg1"
   sodipodi:docname="outline-opacity-0.svg"
   inkscape:version="1.4 (86a8ad7, 2024-10-11)"
   xmlns:inkscape="http://www.inkscape.org/namespaces/inkscape"
   xmlns:sodipodi="http://sodipodi.sourceforge.net/DTD/sodipodi-0.dtd"
   xmlns="http://www.w3.org/2000/svg"
   xmlns:svg="http://www.w3.org/2000/svg">
  <sodipodi:namedview
     id="namedview1"
     pagecolor="#ffffff"
     bordercolor="#000000"
     borderopacity="0.25"
     inkscape:showpageshadow="2"
     inkscape:pageopacity="0.0"
     inkscape:pagecheckerboard="0"
     inkscape:deskcolor="#d1d1d1"
     inkscape:document-units="mm"
     inkscape:zoom="1.2587753"
     inkscape:cx="123.92999"
     inkscape:cy="-34.160189"
     inkscape:window-width="1954"
     inkscape:window-height="1192"
     inkscape:window-x="3638"
     inkscape:window-y="326"
     inkscape:window-maximized="0"
     inkscape:current-layer="g1" />
  <defs
     id="defs1">
    <rect
       x="125.51883"
       y="373.37881"
       width="493.33667"
       height="296.31979"
       id="rect1" />
    <rect
       x="125.51883"
       y="373.37881"
       width="493.33667"
       height="296.31979"
       id="rect2" />
  </defs>
  <g
     inkscape:label="Layer 1"
     inkscape:groupmode="layer"
     id="layer1"
     transform="translate(-72.263388,-157.47592)">
    <g
       id="g1">
      <text
         xml:space="preserve"
         transform="matrix(0.26458333,0,0,0.26458333,35.101911,52.547771)"
         id="text1"
         style="font-style:normal;font-variant:normal;font-weight:normal;font-stretch:normal;font-size:133.333px;font-family:'Noto Serif JP';-inkscape-font-specification:'Noto Serif JP, @wght=400';font-variant-ligatures:normal;font-variant-caps:normal;font-variant-numeric:normal;font-variant-east-asian:normal;font-variation-settings:'wght' 400;text-align:start;writing-mode:lr-tb;direction:ltr;white-space:pre;shape-inside:url(#rect1);display:inline;opacity:0.5;fill:#000000"><tspan
           x="125.51953"
           y="507.37856"
           id="tspan2">ほげ</tspan></text>
      <path
         d="m 201.386,509.91189 q -5.99998,0 -10.79997,-1.6 -4.66665,-1.59999 -7.46665,-4.93332 -2.66666,-3.33332 -2.66666,-8.13331 0,-4.93332 3.46666,-8.53331 3.59999,-3.59999 9.46664,-5.46665 5.86666,-2 13.06664,-2 9.46664,0 17.19995,2.53333 7.73332,2.39999 13.3333,5.59998 5.59999,3.2 8.53331,5.86666 2.4,2.13332 3.6,4.13332 1.19999,1.86666 1.19999,4.26666 0,1.59999 -0.8,2.79999 -0.79999,1.19999 -2.39999,1.19999 -1.46666,0 -2.79999,-0.93333 -1.2,-1.06666 -2.66666,-2.53332 -5.99999,-6.13332 -12.26664,-9.86664 -6.26665,-3.86666 -12.66663,-5.59999 -6.26665,-1.86666 -12.66664,-1.86666 -3.99999,0 -8.39997,1.06666 -4.39999,0.93333 -7.46665,3.06666 -2.93333,2.13333 -2.93333,5.73332 0,3.99999 3.59999,5.99998 3.73333,1.86667 10.93331,1.86667 8.53331,0 12.39997,-3.46666 3.86665,-3.59999 3.86665,-10.39998 0,-3.33332 -0.26666,-8.39997 -0.13334,-5.19999 -0.53333,-10.93331 -0.26667,-5.86665 -0.53334,-11.3333 -0.13333,-5.46666 -0.13333,-9.46665 0,-3.33332 0,-6.93331 0,-3.59999 0,-6.66665 0,-3.06666 -0.13333,-4.93332 -0.13334,-3.19999 -2.66666,-4.66666 -2.4,-1.59999 -4.26666,-2.13332 l 4.13332,-1.86667 q 2.13333,0.4 3.99999,0.93333 1.86667,0.4 3.46666,1.06667 1.6,0.53333 2.93333,1.46666 1.19999,0.8 1.33333,1.86666 0.26666,0.93333 -0.26667,2.8 -1.06666,3.59999 -1.46666,8.66664 -0.26667,5.06665 -0.26667,11.06664 0,5.19999 0.26667,11.46664 0.4,6.26665 0.8,12.66663 0.53333,6.26665 0.93333,11.46664 0.4,5.06665 0.4,7.99998 0,5.73332 -2.8,9.59997 -2.66666,3.73333 -7.73331,5.59999 -4.93332,1.86666 -11.86664,1.86666 z m -46.93321,3.06666 q -1.73333,0 -3.33332,-1.33333 -1.46667,-1.2 -3.06666,-3.73332 -2.53333,-4.13333 -5.06666,-12.39997 -2.53332,-8.39998 -2.53332,-19.59995 0,-8.26665 1.06666,-15.7333 1.2,-7.46664 2.66666,-13.46663 1.6,-5.99998 2.53333,-9.46664 0.66666,-2.26666 1.46666,-5.06665 0.8,-2.8 1.46666,-5.59999 0.66667,-2.79999 0.66667,-5.06665 0,-3.86666 -2.53333,-7.59998 -2.53333,-3.86666 -5.19999,-6.93332 l 2.13333,-1.73333 q 1.86666,0.8 3.73333,1.86666 1.86666,0.93333 3.59999,2.4 1.86666,1.59999 3.86665,4.13332 2,2.53333 3.33333,5.33332 1.33333,2.66666 1.33333,4.93332 0,1.6 -0.93333,3.33333 -0.8,1.59999 -2.13333,4.26665 -1.2,2.53333 -2.93333,6.79998 -1.33333,3.46666 -3.33332,9.46665 -1.86666,5.99998 -3.46666,13.06663 -1.46666,6.93331 -1.46666,13.3333 0,5.33332 0.8,8.66664 0.79999,3.19999 1.99999,5.19999 0.66667,1.33333 1.46666,1.46666 0.8,0.13334 1.6,-1.19999 1.06666,-1.6 2.66666,-5.33332 1.73333,-3.73333 3.73332,-8.26665 2,-4.53332 3.86666,-8.66664 1.86666,-4.26666 2.93333,-6.79999 l 3.06665,1.46667 q -0.93333,2.79999 -2.39999,6.66665 -1.33333,3.86665 -2.93332,7.99998 -1.46667,4.13332 -2.66666,7.73331 -1.2,3.46666 -1.86667,5.46665 -0.93333,3.06666 -1.46666,5.46665 -0.53333,2.4 -0.53333,3.99999 0,3.2 0.66666,6.13332 0.8,2.79999 0.8,4.93332 0,1.73333 -0.93333,2.8 -0.93333,1.06666 -2.66666,1.06666 z m 48.26654,-58.53318 q -4.53332,0 -8.39997,-1.06667 -3.73333,-1.2 -6.93332,-3.73332 -3.19999,-2.66666 -6.13332,-7.06665 l 2,-2 q 2.79999,2 5.33332,3.6 2.53332,1.59999 5.73332,2.53332 3.33332,0.93333 7.99997,0.93333 4.93333,0 9.06665,-0.66666 4.13332,-0.66667 6.93331,-1.2 5.06666,-1.06666 9.33331,-2.39999 4.39999,-1.46667 7.33332,-2.66666 2.66666,-1.2 3.73332,-1.86666 1.2,-0.66667 1.6,-0.66667 0.8,0 1.99999,0.26667 1.2,0.13333 2.26666,0.66666 1.06667,0.53333 1.73333,1.33333 0.8,0.66667 0.8,1.86666 0,1.2 -1.06666,2.4 -0.93333,1.19999 -3.46666,2.13333 -4.66666,1.86666 -11.33331,3.59999 -6.66665,1.59999 -12.66663,2.66666 -4.26666,0.66666 -8.13331,1.06666 -3.73333,0.26667 -7.73332,0.26667 z m 1.86667,-30.13326 q -4.13333,0 -7.46665,-0.93333 -3.33333,-0.93333 -6.13332,-3.06666 -2.66666,-2.26666 -5.33332,-5.86665 l 1.86666,-1.86666 q 3.99999,2.66666 7.33332,3.86665 3.46666,1.2 7.99998,1.2 4.79998,0 9.99997,-0.93333 5.19999,-0.93333 9.33331,-2 4.13332,-1.19999 5.86665,-1.73332 3.33333,-1.2 4.79999,-2 1.46666,-0.8 2.53333,-0.8 1.73333,0 3.19999,0.4 1.46666,0.4 2.26666,1.2 0.93333,0.8 0.93333,2.26666 0.13333,1.2 -0.53333,2.13333 -0.66667,0.79999 -1.86666,1.33333 -2.13333,0.93333 -6.39999,2.13332 -4.26665,1.06667 -9.59997,2.26667 -5.19999,1.06666 -10.26664,1.73332 -4.93332,0.66667 -8.53331,0.66667 z m 170.79956,1.6 q -1.46666,-0.13334 -2.66666,-2.13333 -1.2,-2.13333 -2.93333,-4.79999 -1.59999,-2.66666 -3.86665,-5.59999 -2.26666,-3.06665 -6.13332,-6.39998 l 1.86666,-2.13333 q 4.79999,2.26666 7.99998,4.66666 3.19999,2.39999 5.46665,4.93332 2.26666,2.39999 3.06666,4.39999 0.93333,1.99999 0.66667,3.99999 0,1.59999 -1.06667,2.39999 -0.93333,0.8 -2.39999,0.66667 z m -54.39986,88.9331 q 8.93331,-4.79999 15.19996,-10.39997 6.39998,-5.59999 10.26664,-15.19996 1.86666,-4.53332 2.66666,-10.13331 0.93333,-5.73332 1.06666,-11.86664 0.26667,-6.26665 0,-12.26663 -0.26666,-5.99999 -0.53333,-10.93331 -0.13333,-4.13332 -0.4,-9.33331 -0.26666,-5.33332 -0.53333,-9.86664 -0.26667,-4.66665 -0.53333,-6.93331 -0.13333,-2.13333 -0.93333,-2.93333 -0.66667,-0.93333 -2.13333,-1.33333 -1.6,-0.53333 -4.13332,-0.8 -2.53333,-0.4 -4.66666,-0.53333 l -0.26666,-2.93333 q 2.13332,-0.79999 5.06665,-1.46666 2.93333,-0.66666 4.79999,-0.66666 2.53332,0 5.59998,1.06666 3.2,0.93333 5.46666,2.53333 2.26666,1.59999 2.26666,3.33332 0,1.6 -1.06667,3.73333 -0.93333,1.99999 -1.06666,5.59998 0,2 0,5.33332 0.13333,3.19999 0.26667,6.79998 0.13333,3.59999 0.26666,7.33332 0.26667,5.19999 0.53333,11.86663 0.4,6.53332 0.26667,13.59997 -0.13333,6.93332 -1.06666,13.3333 -0.93334,6.39998 -3.33333,11.3333 -3.06666,6.66665 -7.73331,11.19997 -4.66666,4.53333 -10.66664,7.73332 -5.99999,3.19999 -13.06664,5.59998 z m -29.99992,-5.06665 q -2,0 -3.6,-1.46667 -1.46666,-1.33333 -2.79999,-3.33332 -2.66666,-4.26666 -5.33332,-12.26664 -2.66666,-8.13331 -2.66666,-21.19994 0,-6.39998 1.33333,-13.19997 1.33333,-6.79998 3.06666,-13.19996 1.73333,-6.39999 3.06666,-11.73331 1.33333,-5.33332 1.33333,-8.79997 0,-3.73333 -2.13333,-7.06665 -2.13333,-3.33333 -5.86665,-7.33332 l 1.86666,-1.99999 q 2.4,0.93333 3.86666,1.86666 1.59999,0.93333 3.19999,1.99999 1.46666,1.06667 3.59999,3.46666 2.26666,2.26666 3.86666,5.33332 1.73333,2.93333 1.73333,5.86665 0,2.26666 -1.33333,5.06666 -1.33333,2.66666 -2.8,5.86665 -1.86666,4.13332 -3.99999,9.73331 -1.99999,5.46665 -3.33332,11.46663 -1.33333,5.99999 -1.33333,11.86664 0,5.59999 0.8,9.46664 0.8,3.73333 1.99999,5.99999 0.8,1.46666 1.46667,1.59999 0.79999,0 1.73332,-1.59999 0.8,-1.46666 2.26667,-4.66666 1.46666,-3.19999 3.19999,-7.33331 1.73333,-4.13332 3.46665,-8.26665 1.73333,-4.26665 3.06666,-7.73331 l 3.06666,1.33333 q -1.33333,3.59999 -2.66666,7.59998 -1.33333,3.99999 -2.79999,7.99998 -1.33333,3.86666 -2.39999,7.06665 -0.93334,3.19999 -1.46667,4.79999 -0.66666,2.26666 -1.19999,4.53332 -0.4,2.26666 -0.4,4.53332 0,1.99999 0.53333,3.46666 0.53333,1.33333 0.93333,2.93332 0.53333,1.46667 0.53333,3.73333 0,1.73333 -1.06666,2.66666 -1.06667,0.93333 -2.79999,0.93333 z m 43.19988,-61.33318 q -3.86665,0 -7.73331,-1.06666 -3.73332,-1.2 -7.33331,-3.86666 -3.59999,-2.66666 -7.06665,-7.19998 l 1.86666,-2.4 q 5.46665,3.73333 10.13331,5.59999 4.79998,1.73333 10.39997,1.73333 5.06665,0 10.79997,-0.93333 5.73332,-1.06667 10.93331,-2.53333 5.33332,-1.59999 8.79998,-2.93332 3.99999,-1.6 5.46665,-2.53333 1.46666,-1.06666 2.26666,-1.06666 1.99999,0 4.39999,1.06666 2.39999,1.06666 2.39999,3.06666 0,1.46666 -0.93333,2.53332 -0.8,1.06667 -2.93332,2 -2.8,1.33333 -7.19999,2.79999 -4.39999,1.46667 -9.99997,2.8 -5.46665,1.33333 -11.7333,2.13332 -6.13332,0.8 -12.53331,0.8 z m 52.5332,-31.99992 q -1.46666,0 -2.79999,-1.99999 -1.33333,-2.13333 -3.19999,-4.79999 -1.73333,-2.26666 -3.99999,-4.79999 -2.26666,-2.66666 -6.53332,-5.99998 l 2,-2.26666 q 4.79999,2.13332 7.99998,4.13332 3.19999,1.86666 5.59998,4.26666 2.4,2.39999 3.33333,4.39998 1.06666,1.86667 0.93333,3.99999 -0.13333,1.46667 -1.06667,2.26666 -0.79999,0.8 -2.26666,0.8 z"
         id="text2"
         style="font-size:133.333px;font-family:'Noto Serif JP';-inkscape-font-specification:'Noto Serif JP, @wght=400';font-variation-settings:'wght' 400;white-space:pre"
         transform="matrix(0.26458333,0,0,0.26458333,35.101911,52.547771)"
         aria-label="ほげ" />
    </g>
  </g>
</svg>
